<svg width="100" height="100" viewBox="0 0 100 100" fill="none" xmlns="http://www.w3.org/2000/svg">
<g clip-path="url(#clip0_1073_2)">
<path d="M80 41C80 49.6063 77.2063 57.5563 72.5 64.0063L96.2375 87.7625C98.5813 90.1062 98.5813 93.9125 96.2375 96.2563C93.8938 98.6 90.0875 98.6 87.7437 96.2563L64.0063 72.5C57.5563 77.225 49.6063 80 41 80C19.4562 80 2 62.5438 2 41C2 19.4562 19.4562 2 41 2C62.5438 2 80 19.4562 80 41ZM41 68C44.5457 68 48.0567 67.3016 51.3325 65.9447C54.6082 64.5879 57.5847 62.5991 60.0919 60.0919C62.5991 57.5847 64.5879 54.6082 65.9447 51.3325C67.3016 48.0567 68 44.5457 68 41C68 37.4543 67.3016 33.9433 65.9447 30.6675C64.5879 27.3918 62.5991 24.4153 60.0919 21.9081C57.5847 19.4009 54.6082 17.4121 51.3325 16.0553C48.0567 14.6984 44.5457 14 41 14C37.4543 14 33.9433 14.6984 30.6675 16.0553C27.3918 17.4121 24.4153 19.4009 21.9081 21.9081C19.4009 24.4153 17.4121 27.3918 16.0553 30.6675C14.6984 33.9433 14 37.4543 14 41C14 44.5457 14.6984 48.0567 16.0553 51.3325C17.4121 54.6082 19.4009 57.5847 21.9081 60.0919C24.4153 62.5991 27.3918 64.5879 30.6675 65.9447C33.9433 67.3016 37.4543 68 41 68Z" fill="white"/>
</g>
<defs>
<clipPath id="clip0_1073_2">
<rect width="96" height="96" fill="white" transform="translate(2 2)"/>
</clipPath>
</defs>
</svg>
